<svg xmlns="http://www.w3.org/2000/svg" xmlns:xlink="http://www.w3.org/1999/xlink" version="1.1"
  id="Layer_1" x="0px" y="0px" viewBox="108 -63 240 150"
  style="enable-background:new 108 -63 240 150;" xml:space="preserve">
  <style type="text/css">
    .st0{clip-path:url(#XMLID_2_);}
    .st1{fill:url(#XMLID_3_);}
    .st2{fill:url(#XMLID_4_);}
    .st3{fill:url(#XMLID_5_);}
    .st4{fill:#29ABE2;}
  </style>
  <g id="XMLID_7923_">
    <defs>
      <path id="XMLID_5975_" d="M348,82c0,2.8-2.2,5-5,5H113c-2.8,0-5-2.2-5-5V-58c0-2.8,2.2-5,5-5h230c2.8,0,5,2.2,5,5V82z"/>
    </defs>
    <clipPath id="XMLID_2_">
      <use xlink:href="#XMLID_5975_" style="overflow:visible;"/>
    </clipPath>
    <g id="XMLID_7924_" class="st0">
      <g id="XMLID_7939_">
        <g id="XMLID_8401_">
          <g id="XMLID_8487_">
            <g id="XMLID_8505_">
              <g id="XMLID_8506_">
                <g>
                  <g id="XMLID_47_">
                    <g id="XMLID_48_">
                      
                        <linearGradient id="XMLID_3_" gradientUnits="userSpaceOnUse" x1="831.959" y1="1848.8284" x2="1121.7452" y2="1848.8284" gradientTransform="matrix(-1 0 0 -1 1204.8521 1860.8284)">
                        <stop offset="0" style="stop-color:#1CB2E0"/>
                        <stop offset="0.9263" style="stop-color:#2B64D6"/>
                      </linearGradient>
                      <rect id="XMLID_49_" x="83.1" y="-86.2" class="st1" width="289.8" height="196.4"/>
                    </g>
                  </g>
                </g>
              </g>
            </g>
          </g>
        </g>
        <g id="XMLID_7940_">
          
            <linearGradient id="XMLID_4_" gradientUnits="userSpaceOnUse" x1="924.6371" y1="1858.9957" x2="1155.9034" y2="1858.9957" gradientTransform="matrix(-1 0 0 -1 1204.8521 1860.8284)">
            <stop offset="0" style="stop-color:#1CB2E0"/>
            <stop offset="1" style="stop-color:#2D58D5"/>
          </linearGradient>
          <path id="XMLID_8135_" class="st2" d="M280.2-119.9c0,0-26.4,101.6-106.7,95.5c-80.4-6.1-81.7,123-86.2,147.9H48.9v-227.9v-15.5      H280.2z"/>
          
            <linearGradient id="XMLID_5_" gradientUnits="userSpaceOnUse" x1="814.7123" y1="1803.5785" x2="1040.2703" y2="1803.5785" gradientTransform="matrix(-1 0 0 -1 1204.8521 1860.8284)">
            <stop offset="0" style="stop-color:#1CB2E0"/>
            <stop offset="1" style="stop-color:#2D58D5"/>
          </linearGradient>
          <path id="XMLID_8112_" class="st3" d="M390.1,134.9v-152c0,0-49.7-40-102.1,51.2c-52.4,91.3-73.6,80.2-123.5,106.3L390.1,134.9z      "/>
        </g>
      </g>
      <g id="XMLID_7925_">
        <path id="XMLID_7932_" class="st4" d="M142.8,11.5"/>
      </g>
    </g>
  </g>
<script xmlns=""/></svg>